# xmcd CD database file generated by Grip 3.3.1
# 
# Track frame offsets:
#       150
#       23140
#       49472
#       73909
#       100809
#       126038
#       150262
#       171654
#       198827
#       221042
#       243556
# 
# Disc length: 3513 seconds
# 
# Revision: 1
# Processed by: cddbd v1.5.2PL0 Copyright (c) Steve Scherf et al.
# Submitted via: Grip 3.3.1
# 
DISCID=9f0db70b
DTITLE=Celtic Journey - Piper's Journey
DYEAR=2007
DGENRE=Celtic
TTITLE0=My Laggan Love
TTITLE1=The Three Ravens
TTITLE2=Scotland The Brave
TTITLE3=Believe Me, If All These Endearing Young Charms
TTITLE4=Breton Air, Gavotte and Jig
TTITLE5=Welsh Lullaby Set (Suo-Gan)
TTITLE6=Paddy's Green Shamrock Shores and The Mason's Apron
TTITLE7=The Last Rose of Summer
TTITLE8=The Cliffs of Doneen
TTITLE9=The Flowers of the Forest
TTITLE10=Auld Lang Syne
EXTD=
EXTT0=
EXTT1=
EXTT2=
EXTT3=
EXTT4=
EXTT5=
EXTT6=
EXTT7=
EXTT8=
EXTT9=
EXTT10=
PLAYORDER=
